<svg width="4" height="12" viewBox="0 0 4 12" fill="none" xmlns="http://www.w3.org/2000/svg">
<path d="M0.256604 4.76471V4.21925C0.407547 4.15508 0.608805 4.09091 0.860377 4.02674C1.11195 3.95187 1.37862 3.8877 1.66038 3.83422C1.94214 3.78075 2.21887 3.73797 2.49057 3.70588C2.77233 3.6631 3.01887 3.64171 3.23019 3.64171L3.50189 3.83422L2.1434 10.7487H3.2V11.2941C3.06918 11.3904 2.91321 11.4813 2.73208 11.5668C2.56101 11.6524 2.37484 11.7273 2.17359 11.7914C1.98239 11.8556 1.78616 11.9037 1.58491 11.9358C1.38365 11.9786 1.19245 12 1.01132 12C0.628931 12 0.362264 11.9251 0.211321 11.7754C0.0704402 11.615 0 11.4439 0 11.262C0 11.0481 0.0150943 10.8396 0.045283 10.6364C0.0754717 10.4332 0.115723 10.2086 0.166038 9.96257L1.19245 4.9893L0.256604 4.76471ZM1.52453 1.15508C1.52453 0.791444 1.64025 0.508021 1.8717 0.304813C2.10314 0.101604 2.39497 0 2.74717 0C3.12956 0 3.43145 0.101604 3.65283 0.304813C3.88428 0.508021 4 0.791444 4 1.15508C4 1.49733 3.88428 1.77005 3.65283 1.97326C3.43145 2.17647 3.12956 2.27808 2.74717 2.27808C2.39497 2.27808 2.10314 2.17647 1.8717 1.97326C1.64025 1.77005 1.52453 1.49733 1.52453 1.15508Z" fill="#DCDCDC"/>
</svg>
